<svg xmlns="http://www.w3.org/2000/svg" xmlns:svg="http://www.w3.org/2000/svg" id="svg2" width="1324.604" height="199.795" version="1.1" viewBox="0 0 1324.604 199.795" xml:space="preserve"><metadata id="metadata8"/><defs id="defs6"><clipPath id="clipPath30" clipPathUnits="userSpaceOnUse"><path id="path28" d="M 0,149.846 H 993.453 V 0 H 0 Z"/></clipPath><clipPath id="clipPath38" clipPathUnits="userSpaceOnUse"><path id="path36" d="M 82.8906,61.6318 H 205.254 V 16.7061 H 82.8906 Z"/></clipPath><clipPath id="clipPath94" clipPathUnits="userSpaceOnUse"><path id="path92" d="m 116.846,115.374 h 60.112 V 66.4658 h -60.112 z"/></clipPath><clipPath id="clipPath98" clipPathUnits="userSpaceOnUse"><path id="path96" d="m 116.846,115.374 h 60.112 V 66.4658 h -60.112 z"/></clipPath><clipPath id="clipPath138" clipPathUnits="userSpaceOnUse"><path id="path136" d="m 137.949,47.9561 h 13.828 V 28.2354 h -13.828 z"/></clipPath><clipPath id="clipPath142" clipPathUnits="userSpaceOnUse"><path id="path140" d="m 137.949,28.241 h 13.828 v 19.715 h -13.828 z"/></clipPath><clipPath id="clipPath174" clipPathUnits="userSpaceOnUse"><path id="path172" d="m 109.406,48.4873 h 12.02 V 36.9736 h -12.02 z"/></clipPath><clipPath id="clipPath178" clipPathUnits="userSpaceOnUse"><path id="path176" d="m 109.406,36.974 h 12.018 v 11.508 h -12.018 z"/></clipPath><clipPath id="clipPath202" clipPathUnits="userSpaceOnUse"><path id="path200" d="m 159.332,60.7363 h 13.83 V 41.0186 h -13.83 z"/></clipPath><clipPath id="clipPath206" clipPathUnits="userSpaceOnUse"><path id="path204" d="M 159.332,41.021 H 173.16 V 60.734 H 159.332 Z"/></clipPath><clipPath id="clipPath230" clipPathUnits="userSpaceOnUse"><path id="path228" d="M 137.373,56.9736 H 148.77 V 30.8369 h -11.397 z"/></clipPath><clipPath id="clipPath234" clipPathUnits="userSpaceOnUse"><path id="path232" d="m 137.373,30.837 h 11.396 v 26.137 h -11.396 z"/></clipPath><clipPath id="clipPath274" clipPathUnits="userSpaceOnUse"><path id="path272" d="m 148.885,39.563 0.244,-0.142 c 0.287,0.166 0.516,0.561 0.516,0.893 v 0 l -0.249,0.14 c 0.002,-0.33 -0.226,-0.724 -0.511,-0.891"/></clipPath><clipPath id="clipPath286" clipPathUnits="userSpaceOnUse"><path id="path284" d="M 0,149.846 H 993.453 V 0 H 0 Z"/></clipPath><clipPath id="clipPath298" clipPathUnits="userSpaceOnUse"><path id="path296" d="m 149.251,42.873 c -0.004,0.002 -0.007,0.005 -0.011,0.007 v 0 z m 0.142,-0.323 0.245,-0.139 c 0,0.158 -0.058,0.273 -0.153,0.328 v 0 l -0.234,0.134 c 0.088,-0.053 0.142,-0.165 0.142,-0.323"/></clipPath><clipPath id="clipPath310" clipPathUnits="userSpaceOnUse"><path id="path308" d="m 148.871,43.788 0.242,-0.142 c 0.373,0.215 0.711,0.236 0.953,0.093 v 0 l -0.242,0.143 c -0.104,0.061 -0.221,0.092 -0.351,0.092 v 0 c -0.182,0 -0.387,-0.059 -0.602,-0.186"/></clipPath><clipPath id="clipPath322" clipPathUnits="userSpaceOnUse"><path id="path320" d="M 0,149.846 H 993.453 V 0 H 0 Z"/></clipPath><clipPath id="clipPath334" clipPathUnits="userSpaceOnUse"><path id="path332" d="m 144.319,37.101 0.243,-0.145 c 0.096,-0.054 0.223,-0.043 0.366,0.038 v 0 l -0.247,0.14 c -0.142,-0.082 -0.267,-0.086 -0.362,-0.033"/></clipPath><clipPath id="clipPath346" clipPathUnits="userSpaceOnUse"><path id="path344" d="m 143.733,36.101 0.244,-0.147 c -0.239,0.14 -0.387,0.441 -0.389,0.861 v 0 l -0.246,0.141 c 0,-0.421 0.149,-0.717 0.391,-0.855"/></clipPath><clipPath id="clipPath358" clipPathUnits="userSpaceOnUse"><path id="path356" d="M 0,149.846 H 993.453 V 0 H 0 Z"/></clipPath><clipPath id="clipPath378" clipPathUnits="userSpaceOnUse"><path id="path376" d="m 143.338,39.054 0.242,-0.143 c -0.004,0.852 0.594,1.881 1.334,2.309 v 0 l -0.25,0.14 c -0.732,-0.425 -1.33,-1.458 -1.326,-2.306"/></clipPath><clipPath id="clipPath390" clipPathUnits="userSpaceOnUse"><path id="path388" d="M 0,149.846 H 993.453 V 0 H 0 Z"/></clipPath><clipPath id="clipPath398" clipPathUnits="userSpaceOnUse"><path id="path396" d="m 159.072,69.5107 h 11.399 V 43.3701 h -11.399 z"/></clipPath><clipPath id="clipPath402" clipPathUnits="userSpaceOnUse"><path id="path400" d="M 159.072,43.378 H 170.47 V 69.511 H 159.072 Z"/></clipPath><clipPath id="clipPath442" clipPathUnits="userSpaceOnUse"><path id="path440" d="m 170.586,52.096 0.244,-0.14 c 0.289,0.164 0.517,0.561 0.516,0.891 v 0 l -0.244,0.142 c 0.002,-0.332 -0.229,-0.729 -0.516,-0.893"/></clipPath><clipPath id="clipPath454" clipPathUnits="userSpaceOnUse"><path id="path452" d="M 0,149.846 H 993.453 V 0 H 0 Z"/></clipPath><clipPath id="clipPath466" clipPathUnits="userSpaceOnUse"><path id="path464" d="m 171.094,55.083 0.246,-0.139 c -0.003,0.16 -0.061,0.274 -0.151,0.329 v 0 l -0.246,0.144 c 0.094,-0.053 0.151,-0.17 0.151,-0.334"/></clipPath><clipPath id="clipPath478" clipPathUnits="userSpaceOnUse"><path id="path476" d="m 170.574,56.323 0.242,-0.142 c 0.376,0.215 0.71,0.232 0.952,0.095 v 0 l -0.242,0.137 c -0.104,0.06 -0.221,0.092 -0.356,0.092 v 0 c -0.178,0 -0.383,-0.059 -0.596,-0.182"/></clipPath><clipPath id="clipPath490" clipPathUnits="userSpaceOnUse"><path id="path488" d="M 0,149.846 H 993.453 V 0 H 0 Z"/></clipPath><clipPath id="clipPath502" clipPathUnits="userSpaceOnUse"><path id="path500" d="m 166.021,49.638 0.247,-0.145 c 0.09,-0.054 0.218,-0.045 0.359,0.035 v 0 l -0.244,0.141 c -0.143,-0.08 -0.268,-0.086 -0.362,-0.031"/></clipPath><clipPath id="clipPath514" clipPathUnits="userSpaceOnUse"><path id="path512" d="m 165.434,48.634 0.243,-0.141 c -0.24,0.139 -0.388,0.434 -0.39,0.859 v 0 l -0.242,0.141 c 0,-0.426 0.148,-0.718 0.389,-0.859"/></clipPath><clipPath id="clipPath526" clipPathUnits="userSpaceOnUse"><path id="path524" d="M 0,149.846 H 993.453 V 0 H 0 Z"/></clipPath><clipPath id="clipPath546" clipPathUnits="userSpaceOnUse"><path id="path544" d="m 165.037,51.587 0.244,-0.138 c 0,0.847 0.596,1.878 1.334,2.304 v 0 l -0.246,0.143 c -0.737,-0.424 -1.334,-1.461 -1.332,-2.309"/></clipPath><clipPath id="clipPath558" clipPathUnits="userSpaceOnUse"><path id="path556" d="M 0,149.846 H 993.453 V 0 H 0 Z"/></clipPath><clipPath id="clipPath566" clipPathUnits="userSpaceOnUse"><path id="path564" d="m 151.438,120.103 h 18.494 V 73.8447 h -18.494 z"/></clipPath><clipPath id="clipPath570" clipPathUnits="userSpaceOnUse"><path id="path568" d="m 151.437,73.847 h 18.494 v 46.256 h -18.494 z"/></clipPath><clipPath id="clipPath602" clipPathUnits="userSpaceOnUse"><path id="path600" d="m 170.149,80.087 0.244,-0.141 c 0.287,0.168 0.519,0.563 0.515,0.893 v 0 l -0.244,0.14 c 0,-0.332 -0.228,-0.724 -0.515,-0.892"/></clipPath><clipPath id="clipPath614" clipPathUnits="userSpaceOnUse"><path id="path612" d="M 0,149.846 H 993.453 V 0 H 0 Z"/></clipPath><clipPath id="clipPath626" clipPathUnits="userSpaceOnUse"><path id="path624" d="m 170.515,83.404 c -0.003,0.002 -0.006,0.004 -0.009,0.005 v 0 z m 0.143,-0.329 0.247,-0.14 c -0.003,0.162 -0.062,0.273 -0.155,0.331 v 0 l -0.235,0.138 c 0.09,-0.055 0.143,-0.17 0.143,-0.329"/></clipPath><clipPath id="clipPath638" clipPathUnits="userSpaceOnUse"><path id="path636" d="m 170.135,84.314 0.246,-0.143 c 0.371,0.218 0.709,0.236 0.951,0.096 v 0 l -0.244,0.14 c -0.103,0.059 -0.223,0.092 -0.354,0.092 v 0 c -0.18,0 -0.385,-0.063 -0.599,-0.185"/></clipPath><clipPath id="clipPath650" clipPathUnits="userSpaceOnUse"><path id="path648" d="M 0,149.846 H 993.453 V 0 H 0 Z"/></clipPath><clipPath id="clipPath662" clipPathUnits="userSpaceOnUse"><path id="path660" d="m 165.582,77.626 0.25,-0.145 c 0.09,-0.052 0.217,-0.04 0.359,0.038 v 0 l -0.245,0.142 c -0.142,-0.082 -0.269,-0.09 -0.364,-0.035"/></clipPath><clipPath id="clipPath674" clipPathUnits="userSpaceOnUse"><path id="path672" d="m 164.994,76.63 0.25,-0.149 c -0.243,0.143 -0.393,0.44 -0.393,0.864 v 0 l -0.246,0.136 c 0.002,-0.421 0.151,-0.715 0.389,-0.851"/></clipPath><clipPath id="clipPath686" clipPathUnits="userSpaceOnUse"><path id="path684" d="M 0,149.846 H 993.453 V 0 H 0 Z"/></clipPath><clipPath id="clipPath706" clipPathUnits="userSpaceOnUse"><path id="path704" d="m 164.602,79.577 0.244,-0.138 c -0.004,0.847 0.596,1.881 1.332,2.306 v 0 l -0.244,0.141 c -0.736,-0.424 -1.335,-1.456 -1.332,-2.309"/></clipPath><clipPath id="clipPath718" clipPathUnits="userSpaceOnUse"><path id="path716" d="M 0,149.846 H 993.453 V 0 H 0 Z"/></clipPath><clipPath id="clipPath730" clipPathUnits="userSpaceOnUse"><path id="path728" d="m 127.955,106.452 h 18.494 V 60.1924 h -18.494 z"/></clipPath><clipPath id="clipPath734" clipPathUnits="userSpaceOnUse"><path id="path732" d="m 127.955,60.192 h 18.494 v 46.254 h -18.494 z"/></clipPath><clipPath id="clipPath770" clipPathUnits="userSpaceOnUse"><path id="path768" d="m 146.666,66.441 0.246,-0.145 c 0.287,0.168 0.516,0.562 0.516,0.893 v 0 l -0.245,0.142 c 0,-0.33 -0.23,-0.726 -0.517,-0.89"/></clipPath><clipPath id="clipPath782" clipPathUnits="userSpaceOnUse"><path id="path780" d="M 0,149.846 H 993.453 V 0 H 0 Z"/></clipPath><clipPath id="clipPath794" clipPathUnits="userSpaceOnUse"><path id="path792" d="m 147.176,69.429 0.244,-0.141 c 0,0.162 -0.057,0.274 -0.152,0.328 v 0 l -0.242,0.143 c 0.093,-0.055 0.15,-0.172 0.15,-0.33"/></clipPath><clipPath id="clipPath806" clipPathUnits="userSpaceOnUse"><path id="path804" d="m 146.654,70.665 0.244,-0.143 c 0.372,0.219 0.709,0.237 0.951,0.098 v 0 l -0.242,0.139 c -0.103,0.058 -0.22,0.092 -0.354,0.092 v 0 c -0.179,0 -0.384,-0.061 -0.599,-0.186"/></clipPath><clipPath id="clipPath818" clipPathUnits="userSpaceOnUse"><path id="path816" d="M 0,149.846 H 993.453 V 0 H 0 Z"/></clipPath><clipPath id="clipPath830" clipPathUnits="userSpaceOnUse"><path id="path828" d="m 142.104,63.979 0.242,-0.146 c 0.093,-0.053 0.222,-0.043 0.365,0.037 v 0 l -0.246,0.142 c -0.143,-0.08 -0.268,-0.091 -0.361,-0.033"/></clipPath><clipPath id="clipPath842" clipPathUnits="userSpaceOnUse"><path id="path840" d="m 141.516,62.974 0.244,-0.139 c -0.237,0.137 -0.389,0.436 -0.389,0.859 v 0 l -0.246,0.139 c 0.002,-0.42 0.151,-0.717 0.391,-0.859"/></clipPath><clipPath id="clipPath854" clipPathUnits="userSpaceOnUse"><path id="path852" d="M 0,149.846 H 993.453 V 0 H 0 Z"/></clipPath><clipPath id="clipPath874" clipPathUnits="userSpaceOnUse"><path id="path872" d="m 141.121,65.929 0.244,-0.141 c -0.004,0.85 0.592,1.883 1.333,2.31 v 0 l -0.245,0.141 c -0.74,-0.426 -1.334,-1.461 -1.332,-2.31"/></clipPath><clipPath id="clipPath886" clipPathUnits="userSpaceOnUse"><path id="path884" d="M 0,149.846 H 993.453 V 0 H 0 Z"/></clipPath><clipPath id="clipPath950" clipPathUnits="userSpaceOnUse"><path id="path948" d="m 121.521,131.614 h 46.973 V 95.0576 h -46.973 z"/></clipPath><clipPath id="clipPath954" clipPathUnits="userSpaceOnUse"><path id="path952" d="m 121.521,95.058 h 46.973 v 36.556"/></clipPath><clipPath id="clipPath986" clipPathUnits="userSpaceOnUse"><path id="path984" d="m 117.043,133.14 h 46.432 v -26.42 h -46.432 z"/></clipPath><clipPath id="clipPath990" clipPathUnits="userSpaceOnUse"><path id="path988" d="m 117.043,106.72 h 46.432 v 26.42"/></clipPath><clipPath id="clipPath1010" clipPathUnits="userSpaceOnUse"><path id="path1008" d="m 120.539,132.462 h 45.088 v -27.555 h -45.088 z"/></clipPath><clipPath id="clipPath1014" clipPathUnits="userSpaceOnUse"><path id="path1012" d="m 120.539,104.907 h 45.088 v 27.551"/></clipPath></defs><g id="g10" transform="matrix(1.3333333,0,0,-1.3333333,0,199.79467)"><path id="path12" fill="#444471" fill-opacity="1" fill-rule="nonzero" stroke="none" d="M 0,0 H 993.453 V 149.845 H 0 Z"/><text font-size="27" style="-inkscape-font-specification:Apercu-Bold" id="text18" fill="#fff" fill-opacity="1" fill-rule="nonzero" stroke="none" font-family="Apercu" font-stretch="normal" font-variant="normal" font-weight="bold" transform="matrix(1,0,0,-1,262.5947,84.4258)" writing-mode="lr-tb"><tspan id="tspan14" x="0 9.045 27.648 42.819 57.888 73.545 87.963 102.3 108.321 130.893 144.096 155.733 161.754 177.225 191.452 202.171 213.052 226.066 248.476 255.064 269.32 284.494 294.565 307.768 319.405 325.426 340.6 354.937 360.958 370.732 385.636 399.838 414.904 430.267 436.987 452.377 465.823 472.492 485.695 491.716 505.918 512.263 524.305 530.893 545.227 558.43" y="0" font-family="Apercu Pro" font-stretch="normal" font-style="normal" font-variant="normal" font-weight="bold" style="-inkscape-font-specification:'Apercu Pro Bold'">¡Conoce más herramientas de tecnología cívica </tspan><tspan id="tspan16" x="0 15.552 28.377 39.255 52.458 58.479 72.816 84.264 94.335 107.538 119.175 125.196 139.425 146.148 161.052 175.47 189.672 196.258 211.432 226.498 240.835 252.472 258.493 272.749" y="27.756" font-family="Apercu Pro" font-stretch="normal" font-style="normal" font-variant="normal" font-weight="bold" style="-inkscape-font-specification:'Apercu Pro Bold'">para estas elecciones en</tspan></text><text font-size="27" style="-inkscape-font-specification:Apercu-Bold" id="text22" fill="#27b1aa" fill-opacity="1" fill-rule="nonzero" stroke="none" font-family="Apercu" font-stretch="normal" font-variant="normal" font-weight="bold" transform="matrix(1,0,0,-1,557.0837,56.6698)" writing-mode="lr-tb"><tspan id="tspan20" x="0 20.007 40.014 60.021 68.202 90.828 106.488 120.339 135.297 141.507 148.257 161.784 176.01 182.733 197.637 212.406 222.18 237.273 248.154 261.139 267.97 276.151 290.812 300.721" y="0" font-family="Apercu Pro" font-stretch="normal" font-style="normal" font-variant="normal" font-weight="bold" style="-inkscape-font-specification:'Apercu Pro Bold'">www.mochilaelectoral.gt!</tspan></text><g id="g24"><g id="g26" clip-path="url(#clipPath30)"><g id="g32"><g id="g46"><g id="g44" clip-path="url(#clipPath38)" opacity=".3"><g id="g42" transform="translate(205.2539,39.1689)"><path id="path40" fill="#34334a" fill-opacity="1" fill-rule="nonzero" stroke="none" d="m 0,0 c 0,-12.406 -27.391,-22.463 -61.182,-22.463 -33.789,0 -61.181,10.057 -61.181,22.463 0,12.406 27.392,22.463 61.181,22.463 C -27.391,22.463 0,12.406 0,0"/></g></g></g></g><g id="g48" transform="translate(144.8613,121.8467)"><path id="path50" fill="#444471" fill-opacity="1" fill-rule="nonzero" stroke="none" d="M 0,0 -1.164,0.629 V 2.57 C -1.164,2.57 0,2.779 0,1.887 Z"/></g><g id="g52" transform="translate(146.3359,122.3135)"><path id="path54" fill="#34334a" fill-opacity="1" fill-rule="nonzero" stroke="none" d="m 0,0 c 0,0 0.238,1.689 0,2.727 -0.266,1.173 -2.352,2.05 -3.182,1.705 -0.763,-0.321 -6.201,-3.45 -9.287,-5.034 -3.086,-1.595 -2.812,-3.869 -2.812,-3.869 v -2.72 c 1.06,-1.036 2.812,0.322 2.812,0.322 v 1.246 c 0,1.879 0.203,2.103 0.723,2.49 0.709,0.52 7.568,4.518 8.75,5.108 1.178,0.593 1.521,-0.555 1.521,-0.555 v -1.887 c 0,0 0.77,0.055 1.475,0.467"/></g><g id="g56" transform="translate(145.5977,115.8545)"><path id="path58" fill="#2b6a7c" fill-opacity="1" fill-rule="nonzero" stroke="none" d="M 0,0 C 0,0 -8.289,-3.174 -7.633,-18.365 -6.508,-44.254 4.375,-54.846 4.375,-54.846 l 0.299,-7.508 c -4.268,-0.433 -6.184,1.327 -11.928,12.219 -5.74,10.897 -7.947,39.471 -2.652,47.27 C -7.123,1.229 -3.439,1.105 0,0"/></g><g id="g60" transform="translate(119.8613,100.8447)"><path id="path62" fill="#2b6a7c" fill-opacity="1" fill-rule="nonzero" stroke="none" d="M 0,0 C 0,0 -5.635,-3.955 -7.029,-19.1 -10.303,-54.598 4.375,-54.836 4.375,-54.836 l 0.291,-7.51 c -4.264,-0.439 -8.123,-2.666 -13.869,8.233 -5.74,10.894 -6.676,40.355 -0.705,51.256 C -7.529,1.477 -3.439,1.105 0,0"/></g><g id="g64" transform="translate(153.0312,117.2119)"><path id="path66" fill="#338ba1" fill-opacity="1" fill-rule="nonzero" stroke="none" d="m 0,0 c 0,0 -7.607,4.83 -15.066,-1.83 0,0 3.164,2.094 10.185,-0.703 L -4.928,-2.637 -25.74,-14.656 v 0.154 c 0,0 -7.606,4.33 -15.071,-2.33 0,0 5.237,3.094 15.538,-3.418 L 4.221,-3.482 C 3.492,-2.143 0,0 0,0"/></g><g id="g68" transform="translate(180.5254,80.8389)"><path id="path70" fill="#34334a" fill-opacity="1" fill-rule="nonzero" stroke="none" d="m 0,0 c -0.936,0.49 -2.094,0.307 -3.293,-0.385 l -24.283,-14.013 c -2.451,-1.418 -4.444,-4.557 -4.444,-7.01 v -16.99 c 0,-0.614 0.461,-1.594 0.684,-1.998 l -5.31,3.492 h 0.042 c -0.468,0.435 -0.744,1.123 -0.744,2.037 v 16.99 c 0,2.451 1.981,5.586 4.422,7.004 L -8.77,3.146 c 1.395,0.809 2.635,0.881 3.444,0.342 z"/></g><g id="g72" transform="translate(148.5215,42.4111)"><path id="path74" fill="#444471" fill-opacity="1" fill-rule="nonzero" stroke="none" d="M 0,0 C 0,-2.455 1.98,-3.295 4.428,-1.883 L 28.65,12.143 c 2.452,1.416 4.432,4.552 4.432,7.011 v 16.991 c 0,2.453 -1.98,3.296 -4.432,1.875 L 4.428,23.994 C 1.98,22.586 0,19.441 0,16.992 Z"/></g><g id="g76" transform="translate(173.752,113.9873)"><path id="path78" fill="#27b1aa" fill-opacity="1" fill-rule="nonzero" stroke="none" d="m 0,0 -10.24,7.861 c -0.692,0.494 -3.112,1.153 -5.371,-0.15 l -34.76,-20.072 c -3.512,-2.028 -6.358,-6.516 -6.358,-10.032 V -72.85 c 0,-1.755 0.805,-2.761 1.858,-3.425 3.016,-1.879 10.396,-7.01 10.396,-7.01 l -0.021,-0.041 c -0.869,0.584 -1.387,1.666 -1.387,3.168 v 44.412 c 0,3.514 2.848,14.051 6.36,16.074 L -4.758,0.4 c 1.899,1.102 3.315,0.291 4.487,-0.349 z"/></g><g id="g80" transform="translate(127.8691,33.8291)"><path id="path82" fill="#73c9c4" fill-opacity="1" fill-rule="nonzero" stroke="none" d="m 0,0 c 0,-3.518 2.848,-4.723 6.359,-2.691 l 34.766,20.068 c 3.51,2.029 6.357,6.523 6.357,10.035 v 50.459 c 0,2.387 -2.847,4.717 -6.357,2.686 L 6.359,60.486 C 2.848,58.463 0,53.971 0,50.459 Z"/></g><g id="g84" transform="translate(176.9902,112.4053)"><path id="path86" fill="#27b1aa" fill-opacity="1" fill-rule="nonzero" stroke="none" d="m 0,0 c -1.141,0.436 1.211,-2.084 -0.5,-3.07 l -34.76,-20.071 c -3.513,-2.029 -6.361,-6.519 -6.361,-10.029 v -12.498 c 0,-0.881 -3.912,0.717 -3.59,0.147 l -3.037,1.996 h 0.068 c -0.679,0.617 -1.07,1.605 -1.07,2.914 v 12.494 c 0,3.512 2.834,8.004 6.326,10.031 L -8.338,1.982 c 1.994,1.161 3.772,1.262 4.934,0.487 z"/></g><g id="g88"><g id="g114"><g id="g112" clip-path="url(#clipPath94)" opacity=".5"><g id="g110"><g id="g108"><g id="g106" clip-path="url(#clipPath98)" opacity=".3"><g id="g104" transform="translate(176.8105,112.4053)"><path id="path102" fill="#57524d" fill-opacity="1" fill-rule="nonzero" stroke="none" d="m 0,0 -3.406,2.469 c -1.16,0.775 -2.94,0.674 -4.932,-0.487 l -34.584,-20.068 c -3.496,-2.027 -6.33,-6.519 -6.33,-10.031 v -0.276 l -10.713,6.627 v -4.138 l 10.713,-6.717 v -7.99 c 0,-1.309 0.393,-2.297 1.068,-2.914 h -0.066 l 3.037,-1.996 c -0.322,0.57 3.592,-1.028 3.592,-0.147 v 12.498 c 0,3.51 2.848,8 6.359,10.029 L -0.5,-3.07 C 1.211,-2.084 -1.141,0.436 0,0"/></g></g></g></g></g></g></g><g id="g116" transform="translate(177.2227,70.6318)"><path id="path118" fill="#f1a31e" fill-opacity="1" fill-rule="nonzero" stroke="none" d="M 0,0 C -1.139,0.434 1.107,-2.266 -0.6,-3.254 L -35.361,-23.32 c -3.516,-2.032 -6.36,-6.52 -6.36,-10.032 v -13.871 c 0,-0.882 -3.914,0.717 -3.593,0.147 l -3.04,1.994 h 0.067 c -0.672,0.619 -1.068,1.607 -1.068,2.916 v 13.869 c 0,3.514 2.835,8.004 6.334,10.029 L -8.439,1.801 c 1.992,1.162 3.769,1.262 4.931,0.49 z"/></g><g id="g120" transform="translate(130.7285,26.3428)"><path id="path122" fill="#f9c231" fill-opacity="1" fill-rule="nonzero" stroke="none" d="m 0,0 c 0,-3.52 2.836,-4.721 6.34,-2.691 l 34.68,20.078 c 3.503,2.021 6.335,6.513 6.335,10.023 v 13.887 c 0,3.508 -2.832,4.717 -6.335,2.682 L 6.34,23.904 C 2.836,21.885 0,17.389 0,13.871 Z"/></g><g id="g124" transform="translate(127.8691,48.042)"><path id="path126" fill="#34334a" fill-opacity="1" fill-rule="nonzero" stroke="none" d="m 0,0 h -0.855 c -3.194,0 -5.813,-2.725 -5.813,-6.057 v -19.582 l -11.795,6.785 v 18.583 c 0,3.332 2.615,6.06 5.815,6.06 h 2.144 z"/></g><g id="g128" transform="translate(121.2012,22.4033)"><path id="path130" fill="#444471" fill-opacity="1" fill-rule="nonzero" stroke="none" d="m 0,0 v 19.477 c 0,3.388 2.545,6.162 5.66,6.162 H 6.49 L 6.668,25.635 V 6.166 C 6.668,2.775 4.123,0 1.012,0 Z"/></g><g id="g132"><g id="g154"><g id="g152" clip-path="url(#clipPath138)" opacity=".6"><g id="g150"><g id="g148" clip-path="url(#clipPath142)"><g id="g146" transform="translate(140.3789,28.2354)"><path id="path144" fill="#f1a31e" fill-opacity="1" fill-rule="nonzero" stroke="none" d="m 0,0 -1.67,1.133 c -0.482,0.435 -0.758,0.982 -0.758,1.908 v 6.457 c 0,2.49 2.006,5.67 4.483,7.107 l 4.662,2.413 c 1.41,0.822 2.672,0.896 3.494,0.345 l 1.187,-0.603"/></g></g></g></g></g></g><g id="g156" transform="translate(139.0195,30.6865)"><path id="path158" fill="#f9cc62" fill-opacity="1" fill-rule="nonzero" stroke="none" d="m 0,0 c 0,-2.492 2.01,-3.342 4.49,-1.904 l 4.731,2.42 c 2.484,1.431 4.49,4.613 4.49,7.101 v 6.465 c 0,2.488 -2.006,3.346 -4.49,1.904 L 4.49,13.572 C 2.01,12.137 0,8.955 0,6.461 Z"/></g><g id="g160" transform="translate(163.7227,122.042)"><path id="path162" fill="#73c9c4" fill-opacity="1" fill-rule="nonzero" stroke="none" d="m 0,0 c -0.875,0.389 -3.295,1.043 -5.555,-0.258 l -34.763,-20.07 c -3.51,-2.031 -6.356,-6.518 -6.356,-10.031 l -0.025,-2.055 13.574,-8.506 c -0.416,4.959 3.35,8.859 5,10.158 L 9.314,-9.105 c 2.09,0.677 3.231,0.078 3.692,-0.297 z"/></g><g id="g164" transform="translate(130.5977,69.6709)"><path id="path166" fill="#abdcd9" fill-opacity="1" fill-rule="nonzero" stroke="none" d="m 0,0 c 0,-3.518 2.84,-4.721 6.342,-2.689 l 34.676,20.078 c 3.509,2.019 6.341,6.511 6.341,10.023 V 39.92 c 0,3.508 -2.832,4.717 -6.341,2.685 L 6.342,22.533 C 2.84,20.508 0,16.014 0,12.496 Z"/></g><g id="g168"><g id="g190"><g id="g188" clip-path="url(#clipPath174)" opacity=".3"><g id="g186"><g id="g184" clip-path="url(#clipPath178)"><g id="g182" transform="translate(121.4258,43.7002)"><path id="path180" fill="#57524d" fill-opacity="1" fill-rule="nonzero" stroke="none" d="m 0,0 -10.867,4.787 -1.151,-4.635 c 3.057,-2.648 10.348,-6.103 11.795,-6.877 0,0 -0.045,3.959 0,5.498 C -0.217,-0.883 0,0 0,0"/></g></g></g></g></g></g><g id="g192" transform="translate(121.6914,44.6396)"><path id="path194" fill="#34334a" fill-opacity="1" fill-rule="nonzero" stroke="none" d="m 0,0 -12.082,4.994 -1.154,-4.633 c 3.058,-2.648 9.935,-5.703 11.554,-6.291 z"/></g><g id="g196"><g id="g218"><g id="g216" clip-path="url(#clipPath202)" opacity=".6"><g id="g214"><g id="g212" clip-path="url(#clipPath206)"><g id="g210" transform="translate(161.7656,41.0186)"><path id="path208" fill="#f1a31e" fill-opacity="1" fill-rule="nonzero" stroke="none" d="m 0,0 -1.672,1.129 c -0.482,0.439 -0.762,0.986 -0.762,1.914 v 6.455 c 0,2.492 2.012,5.674 4.487,7.107 l 4.662,2.415 c 1.414,0.822 2.674,0.894 3.496,0.343 l 1.185,-0.607"/></g></g></g></g></g></g><g id="g220" transform="translate(160.4043,43.4697)"><path id="path222" fill="#f9cc62" fill-opacity="1" fill-rule="nonzero" stroke="none" d="m 0,0 c 0,-2.492 2.01,-3.344 4.494,-1.906 l 4.729,2.418 c 2.482,1.431 4.488,4.617 4.488,7.103 v 6.467 c 0,2.488 -2.006,3.344 -4.488,1.904 L 4.494,13.57 C 2.01,12.135 0,8.951 0,6.459 Z"/></g><g id="g224"><g id="g246"><g id="g244" clip-path="url(#clipPath230)" opacity=".3"><g id="g242"><g id="g240" clip-path="url(#clipPath234)"><g id="g238" transform="translate(148.0293,54.1729)"><path id="path236" fill="#57524d" fill-opacity="1" fill-rule="nonzero" stroke="none" d="m 0,0 -1.092,-0.633 -4.521,3.43 -5.043,-2.94 5.568,-3.875 -0.01,-17.904 0.741,-0.43 2.545,-0.984 2.542,3.926 0.01,18.978 z"/></g></g></g></g></g></g><g id="g248" transform="translate(143.168,57.6357)"><path id="path250" fill="#444471" fill-opacity="1" fill-rule="nonzero" stroke="none" d="M 0,0 -5.045,-2.939 0.551,-6.836 4.76,-3.605 Z"/></g><g id="g252" transform="translate(144.4492,32.1123)"><path id="path254" fill="#444471" fill-opacity="1" fill-rule="nonzero" stroke="none" d="M 0,0 -0.738,0.428 -0.729,19.41 0.01,18.98 Z"/></g><g id="g256" transform="translate(144.459,51.0928)"><path id="path258" fill="#585c55" fill-opacity="1" fill-rule="nonzero" stroke="none" d="M 0,0 -0.74,0.43 4.35,3.367 5.09,2.938 Z"/></g><g id="g260" transform="translate(149.5508,54.0303)"><path id="path262" fill="#34334a" fill-opacity="1" fill-rule="nonzero" stroke="none" d="m 0,0 -0.014,-18.982 -2.537,-3.924 -2.551,0.988 0.01,18.98 z"/></g><g id="g264" transform="translate(143.8242,58.0361)"><path id="path266" fill="#34334a" fill-opacity="1" fill-rule="nonzero" stroke="none" d="m 0,0 -5.078,-2.967 5.713,-3.976 5.09,2.937 z"/></g></g></g><g id="g268"><g id="g270" clip-path="url(#clipPath274)"><g id="g276" transform="translate(149.1289,39.4209)"><path id="path278" fill="#fff" fill-opacity="1" fill-rule="nonzero" stroke="none" d="m 0,0 -0.244,0.143 c 0.285,0.166 0.514,0.56 0.512,0.89 L 0.516,0.889 C 0.516,0.561 0.287,0.166 0,0"/></g></g></g><g id="g280"><g id="g282" clip-path="url(#clipPath286)"><g id="g288" transform="translate(149.6445,40.3135)"><path id="path290" fill="#848484" fill-opacity="1" fill-rule="nonzero" stroke="none" d="M 0,0 -0.248,0.141 -0.252,2.234 -0.008,2.098 Z"/></g></g></g><g id="g292"><g id="g294" clip-path="url(#clipPath298)"><g id="g300" transform="translate(149.6387,42.4111)"><path id="path302" fill="#fff" fill-opacity="1" fill-rule="nonzero" stroke="none" d="m 0,0 -0.246,0.139 c 0,0.164 -0.059,0.277 -0.152,0.332 L -0.154,0.328 C -0.059,0.273 0,0.16 0,0"/></g></g></g><g id="g304"><g id="g306" clip-path="url(#clipPath310)"><g id="g312" transform="translate(149.1152,43.6455)"><path id="path314" fill="#fff" fill-opacity="1" fill-rule="nonzero" stroke="none" d="M 0,0 -0.244,0.143 C 0.129,0.357 0.467,0.379 0.709,0.236 L 0.953,0.094 C 0.709,0.236 0.371,0.215 0,0"/></g></g></g><g id="g316"><g id="g318" clip-path="url(#clipPath322)"><g id="g324" transform="translate(144.9277,36.9912)"><path id="path326" fill="#d8d8d7" fill-opacity="1" fill-rule="nonzero" stroke="none" d="M 0,0 -0.246,0.143 3.957,2.572 4.201,2.43 Z"/></g></g></g><g id="g328"><g id="g330" clip-path="url(#clipPath334)"><g id="g336" transform="translate(144.5625,36.958)"><path id="path338" fill="#fff" fill-opacity="1" fill-rule="nonzero" stroke="none" d="M 0,0 -0.244,0.145 C -0.148,0.088 -0.023,0.094 0.117,0.176 L 0.363,0.033 C 0.223,-0.045 0.096,-0.057 0,0"/></g></g></g><g id="g340"><g id="g342" clip-path="url(#clipPath346)"><g id="g348" transform="translate(143.9766,35.9561)"><path id="path350" fill="#fff" fill-opacity="1" fill-rule="nonzero" stroke="none" d="M 0,0 -0.244,0.145 C -0.484,0.283 -0.635,0.578 -0.635,1 L -0.389,0.859 C -0.387,0.437 -0.238,0.139 0,0"/></g></g></g><g id="g352"><g id="g354" clip-path="url(#clipPath358)"><g id="g360" transform="translate(143.5879,36.8154)"><path id="path362" fill="#848484" fill-opacity="1" fill-rule="nonzero" stroke="none" d="M 0,0 -0.246,0.143 -0.25,2.238 -0.01,2.098 Z"/></g><g id="g364" transform="translate(144.9141,41.2197)"><path id="path366" fill="#d8d8d7" fill-opacity="1" fill-rule="nonzero" stroke="none" d="M 0,0 -0.25,0.145 3.957,2.568 4.199,2.426 Z"/></g><g id="g368" transform="translate(149.6445,40.3135)"><path id="path370" fill="#c2c2c2" fill-opacity="1" fill-rule="nonzero" stroke="none" d="m 0,0 -0.008,2.098 c 0,0.32 -0.23,0.461 -0.519,0.291 L -4.73,-0.037 c -0.278,-0.16 -0.506,-0.565 -0.504,-0.887 L -5.23,-3.02 c 0.001,-0.332 0.228,-0.462 0.513,-0.302 l 4.201,2.429 C -0.229,-0.727 0,-0.332 0,0 m -0.531,3.332 c 0.74,0.432 1.34,0.086 1.345,-0.764 L 0.816,0.471 c 0.008,-0.848 -0.591,-1.883 -1.33,-2.307 l -4.203,-2.426 c -0.738,-0.427 -1.338,-0.086 -1.34,0.764 l -0.009,2.096 c -0.002,0.849 0.595,1.881 1.334,2.308 z"/></g></g></g><g id="g372"><g id="g374" clip-path="url(#clipPath378)"><g id="g380" transform="translate(143.5801,38.9131)"><path id="path382" fill="#fff" fill-opacity="1" fill-rule="nonzero" stroke="none" d="m 0,0 -0.242,0.141 c -0.004,0.847 0.592,1.88 1.326,2.31 L 1.334,2.307 C 0.596,1.881 -0.002,0.848 0,0"/></g></g></g><g id="g384"><g id="g386" clip-path="url(#clipPath390)"><g id="g392"><g id="g414"><g id="g412" clip-path="url(#clipPath398)" opacity=".3"><g id="g410"><g id="g408" clip-path="url(#clipPath402)"><g id="g406" transform="translate(169.7324,66.7061)"><path id="path404" fill="#57524d" fill-opacity="1" fill-rule="nonzero" stroke="none" d="m 0,0 -1.096,-0.633 -4.517,3.43 -5.047,-2.94 5.57,-3.875 -0.008,-17.904 0.739,-0.43 2.547,-0.984 2.539,3.924 0.011,18.982 z"/></g></g></g></g></g></g><g id="g416" transform="translate(164.8711,70.1729)"><path id="path418" fill="#444471" fill-opacity="1" fill-rule="nonzero" stroke="none" d="M 0,0 -5.047,-2.943 0.551,-6.84 4.76,-3.607 Z"/></g><g id="g420" transform="translate(166.1523,44.6455)"><path id="path422" fill="#444471" fill-opacity="1" fill-rule="nonzero" stroke="none" d="m 0,0 -0.74,0.43 0.01,18.978 0.74,-0.424 z"/></g><g id="g424" transform="translate(166.1621,63.6299)"><path id="path426" fill="#585c55" fill-opacity="1" fill-rule="nonzero" stroke="none" d="M 0,0 -0.74,0.428 4.352,3.367 5.088,2.936 Z"/></g><g id="g428" transform="translate(171.25,66.5654)"><path id="path430" fill="#34334a" fill-opacity="1" fill-rule="nonzero" stroke="none" d="m 0,0 -0.01,-18.982 -2.539,-3.924 -2.549,0.986 0.01,18.981 z"/></g><g id="g432" transform="translate(165.5293,70.5713)"><path id="path434" fill="#34334a" fill-opacity="1" fill-rule="nonzero" stroke="none" d="m 0,0 -5.08,-2.969 5.713,-3.972 5.088,2.933 z"/></g></g></g><g id="g436"><g id="g438" clip-path="url(#clipPath442)"><g id="g444" transform="translate(170.832,51.9561)"><path id="path446" fill="#fff" fill-opacity="1" fill-rule="nonzero" stroke="none" d="M 0,0 -0.246,0.141 C 0.041,0.305 0.271,0.701 0.27,1.033 L 0.514,0.889 C 0.516,0.561 0.287,0.164 0,0"/></g></g></g><g id="g448"><g id="g450" clip-path="url(#clipPath454)"><g id="g456" transform="translate(171.3457,52.8447)"><path id="path458" fill="#848484" fill-opacity="1" fill-rule="nonzero" stroke="none" d="M 0,0 -0.244,0.145 -0.252,2.238 -0.006,2.1 Z"/></g></g></g><g id="g460"><g id="g462" clip-path="url(#clipPath466)"><g id="g468" transform="translate(171.3398,54.9443)"><path id="path470" fill="#fff" fill-opacity="1" fill-rule="nonzero" stroke="none" d="m 0,0 -0.246,0.139 c 0,0.16 -0.057,0.279 -0.15,0.334 L -0.15,0.332 C -0.061,0.275 0,0.16 0,0"/></g></g></g><g id="g472"><g id="g474" clip-path="url(#clipPath478)"><g id="g480" transform="translate(170.8164,56.1807)"><path id="path482" fill="#fff" fill-opacity="1" fill-rule="nonzero" stroke="none" d="M 0,0 -0.242,0.143 C 0.127,0.357 0.463,0.377 0.709,0.234 L 0.953,0.096 C 0.709,0.234 0.375,0.215 0,0"/></g></g></g><g id="g484"><g id="g486" clip-path="url(#clipPath490)"><g id="g492" transform="translate(166.627,49.5283)"><path id="path494" fill="#d8d8d7" fill-opacity="1" fill-rule="nonzero" stroke="none" d="M 0,0 -0.244,0.143 3.959,2.568 4.203,2.426 Z"/></g></g></g><g id="g496"><g id="g498" clip-path="url(#clipPath502)"><g id="g504" transform="translate(166.2676,49.4932)"><path id="path506" fill="#fff" fill-opacity="1" fill-rule="nonzero" stroke="none" d="M 0,0 -0.246,0.143 C -0.152,0.086 -0.027,0.096 0.115,0.178 L 0.359,0.031 C 0.221,-0.047 0.092,-0.055 0,0"/></g></g></g><g id="g508"><g id="g510" clip-path="url(#clipPath514)"><g id="g516" transform="translate(165.6797,48.4932)"><path id="path518" fill="#fff" fill-opacity="1" fill-rule="nonzero" stroke="none" d="M 0,0 -0.246,0.139 C -0.486,0.281 -0.635,0.574 -0.635,1 L -0.393,0.859 C -0.391,0.434 -0.242,0.137 0,0"/></g></g></g><g id="g520"><g id="g522" clip-path="url(#clipPath526)"><g id="g528" transform="translate(165.2871,49.3506)"><path id="path530" fill="#848484" fill-opacity="1" fill-rule="nonzero" stroke="none" d="M 0,0 -0.242,0.143 -0.25,2.236 -0.006,2.096 Z"/></g><g id="g532" transform="translate(166.6152,53.7529)"><path id="path534" fill="#d8d8d7" fill-opacity="1" fill-rule="nonzero" stroke="none" d="M 0,0 -0.246,0.143 3.959,2.57 4.201,2.428 Z"/></g><g id="g536" transform="translate(171.3457,52.8447)"><path id="path538" fill="#c2c2c2" fill-opacity="1" fill-rule="nonzero" stroke="none" d="m 0,0 -0.006,2.1 c -0.002,0.32 -0.23,0.459 -0.519,0.293 L -4.729,-0.033 C -5.006,-0.195 -5.236,-0.598 -5.236,-0.92 l 0.007,-2.098 c 0,-0.33 0.227,-0.462 0.51,-0.302 l 4.203,2.431 C -0.227,-0.725 0.002,-0.328 0,0 M -0.529,3.336 C 0.213,3.764 0.812,3.424 0.812,2.572 L 0.818,0.475 C 0.822,-0.373 0.225,-1.404 -0.514,-1.832 l -4.201,-2.43 c -0.738,-0.422 -1.34,-0.082 -1.344,0.768 l -0.005,2.096 c -0.002,0.849 0.595,1.88 1.334,2.306 z"/></g></g></g><g id="g540"><g id="g542" clip-path="url(#clipPath546)"><g id="g548" transform="translate(165.2812,51.4463)"><path id="path550" fill="#fff" fill-opacity="1" fill-rule="nonzero" stroke="none" d="m 0,0 -0.244,0.141 c 0,0.847 0.594,1.882 1.332,2.308 L 1.334,2.307 C 0.596,1.883 -0.002,0.85 0,0"/></g></g></g><g id="g552"><g id="g554" clip-path="url(#clipPath558)"><g id="g560"><g id="g582"><g id="g580" clip-path="url(#clipPath566)" opacity=".3"><g id="g578"><g id="g576" clip-path="url(#clipPath570)"><g id="g574" transform="translate(169.1914,112.2354)"><path id="path572" fill="#57524d" fill-opacity="1" fill-rule="nonzero" stroke="none" d="m 0,0 -1.096,-0.631 -11.611,8.498 -5.047,-2.943 12.664,-8.942 -0.012,-32.959 0.741,-0.429 2.55,-0.985 2.538,3.922 0.013,34.037 z"/></g></g></g></g></g></g><g id="g584" transform="translate(157.2324,120.7666)"><path id="path586" fill="#2b6a7c" fill-opacity="1" fill-rule="nonzero" stroke="none" d="m 0,0 -5.045,-2.938 12.693,-8.966 4.209,3.23 z"/></g><g id="g588" transform="translate(165.6094,75.1182)"><path id="path590" fill="#444471" fill-opacity="1" fill-rule="nonzero" stroke="none" d="M 0,0 -0.74,0.43 V 34.566 L 0.012,34.039 Z"/></g><g id="g592" transform="translate(170.7129,112.0947)"><path id="path594" fill="#34334a" fill-opacity="1" fill-rule="nonzero" stroke="none" d="m 0,0 -0.016,-34.037 -2.539,-3.926 -2.549,0.986 0.012,34.039 z"/></g></g></g><g id="g596"><g id="g598" clip-path="url(#clipPath602)"><g id="g604" transform="translate(170.3926,79.9463)"><path id="path606" fill="#fff" fill-opacity="1" fill-rule="nonzero" stroke="none" d="m 0,0 -0.244,0.141 c 0.287,0.166 0.515,0.56 0.515,0.894 L 0.516,0.893 C 0.52,0.562 0.287,0.168 0,0"/></g></g></g><g id="g608"><g id="g610" clip-path="url(#clipPath614)"><g id="g616" transform="translate(170.9082,80.8389)"><path id="path618" fill="#848484" fill-opacity="1" fill-rule="nonzero" stroke="none" d="M 0,0 -0.244,0.143 -0.25,2.236 -0.004,2.096 Z"/></g></g></g><g id="g620"><g id="g622" clip-path="url(#clipPath626)"><g id="g628" transform="translate(170.9043,82.9346)"><path id="path630" fill="#fff" fill-opacity="1" fill-rule="nonzero" stroke="none" d="m 0,0 -0.246,0.143 c 0,0.162 -0.057,0.275 -0.152,0.332 L -0.154,0.332 C -0.061,0.273 0,0.162 0,0"/></g></g></g><g id="g632"><g id="g634" clip-path="url(#clipPath638)"><g id="g640" transform="translate(170.3809,84.1709)"><path id="path642" fill="#fff" fill-opacity="1" fill-rule="nonzero" stroke="none" d="M 0,0 -0.246,0.145 C 0.125,0.359 0.463,0.379 0.709,0.238 L 0.953,0.096 C 0.709,0.238 0.371,0.217 0,0"/></g></g></g><g id="g644"><g id="g646" clip-path="url(#clipPath650)"><g id="g652" transform="translate(166.1914,77.5205)"><path id="path654" fill="#d8d8d7" fill-opacity="1" fill-rule="nonzero" stroke="none" d="M 0,0 -0.246,0.143 3.957,2.566 4.201,2.426 Z"/></g></g></g><g id="g656"><g id="g658" clip-path="url(#clipPath662)"><g id="g664" transform="translate(165.832,77.4834)"><path id="path666" fill="#fff" fill-opacity="1" fill-rule="nonzero" stroke="none" d="M 0,0 -0.246,0.143 C -0.154,0.088 -0.027,0.096 0.113,0.18 L 0.355,0.035 C 0.219,-0.043 0.092,-0.055 0,0"/></g></g></g><g id="g668"><g id="g670" clip-path="url(#clipPath674)"><g id="g676" transform="translate(165.2441,76.4834)"><path id="path678" fill="#fff" fill-opacity="1" fill-rule="nonzero" stroke="none" d="M 0,0 -0.25,0.143 C -0.488,0.281 -0.637,0.578 -0.639,0.998 L -0.393,0.857 C -0.393,0.436 -0.242,0.139 0,0"/></g></g></g><g id="g680"><g id="g682" clip-path="url(#clipPath686)"><g id="g688" transform="translate(164.8516,77.3408)"><path id="path690" fill="#848484" fill-opacity="1" fill-rule="nonzero" stroke="none" d="M 0,0 -0.246,0.145 -0.252,2.238 -0.01,2.096 Z"/></g><g id="g692" transform="translate(166.1797,81.7451)"><path id="path694" fill="#d8d8d7" fill-opacity="1" fill-rule="nonzero" stroke="none" d="M 0,0 -0.244,0.143 3.955,2.57 4.201,2.426 Z"/></g><g id="g696" transform="translate(170.9082,80.8389)"><path id="path698" fill="#c2c2c2" fill-opacity="1" fill-rule="nonzero" stroke="none" d="m 0,0 -0.004,2.096 c 0,0.324 -0.232,0.461 -0.519,0.295 l -4.204,-2.428 c -0.281,-0.16 -0.509,-0.561 -0.507,-0.887 l 0.005,-2.096 c 0,-0.332 0.229,-0.462 0.512,-0.298 l 4.201,2.425 C -0.227,-0.725 0.004,-0.33 0,0 M -0.527,3.332 C 0.211,3.762 0.811,3.42 0.814,2.57 L 0.822,0.471 C 0.824,-0.375 0.225,-1.41 -0.512,-1.834 l -4.201,-2.428 c -0.742,-0.427 -1.342,-0.084 -1.344,0.764 L -6.066,-1.4 c 0,0.847 0.599,1.88 1.336,2.306 z"/></g></g></g><g id="g700"><g id="g702" clip-path="url(#clipPath706)"><g id="g708" transform="translate(164.8457,79.4385)"><path id="path710" fill="#fff" fill-opacity="1" fill-rule="nonzero" stroke="none" d="M 0,0 -0.246,0.141 C -0.248,0.988 0.35,2.023 1.09,2.449 L 1.334,2.307 C 0.596,1.881 -0.004,0.852 0,0"/></g></g></g><g id="g712"><g id="g714" clip-path="url(#clipPath718)"><g id="g720" transform="translate(157.8906,121.167)"><path id="path722" fill="#34334a" fill-opacity="1" fill-rule="nonzero" stroke="none" d="M 0,0 -5.08,-2.969 7.729,-12.01 12.82,-9.072 Z"/></g><g id="g724"><g id="g746"><g id="g744" clip-path="url(#clipPath730)" opacity=".3"><g id="g742"><g id="g740" clip-path="url(#clipPath734)"><g id="g738" transform="translate(145.709,98.585)"><path id="path736" fill="#57524d" fill-opacity="1" fill-rule="nonzero" stroke="none" d="m 0,0 -1.094,-0.629 -11.613,8.496 -5.045,-2.939 12.662,-8.946 -0.01,-32.957 0.741,-0.429 2.547,-0.985 2.541,3.922 0.011,34.035 z"/></g></g></g></g></g></g><g id="g748" transform="translate(133.752,107.1182)"><path id="path750" fill="#2b6a7c" fill-opacity="1" fill-rule="nonzero" stroke="none" d="m 0,0 -5.045,-2.939 12.691,-8.963 4.209,3.228 z"/></g><g id="g752" transform="translate(142.1289,61.4697)"><path id="path754" fill="#444471" fill-opacity="1" fill-rule="nonzero" stroke="none" d="m 0,0 -0.74,0.43 0.01,34.037 0.74,-0.43 z"/></g><g id="g756" transform="translate(142.1387,95.5068)"><path id="path758" fill="#585c55" fill-opacity="1" fill-rule="nonzero" stroke="none" d="M 0,0 -0.742,0.43 4.352,3.369 5.088,2.938 Z"/></g><g id="g760" transform="translate(147.2266,98.4443)"><path id="path762" fill="#34334a" fill-opacity="1" fill-rule="nonzero" stroke="none" d="m 0,0 -0.01,-34.037 -2.539,-3.926 -2.549,0.988 0.01,34.037 z"/></g></g></g><g id="g764"><g id="g766" clip-path="url(#clipPath770)"><g id="g772" transform="translate(146.9121,66.2959)"><path id="path774" fill="#fff" fill-opacity="1" fill-rule="nonzero" stroke="none" d="m 0,0 -0.246,0.145 c 0.289,0.164 0.517,0.56 0.517,0.892 L 0.518,0.893 C 0.518,0.562 0.287,0.168 0,0"/></g></g></g><g id="g776"><g id="g778" clip-path="url(#clipPath782)"><g id="g784" transform="translate(147.4297,67.1885)"><path id="path786" fill="#848484" fill-opacity="1" fill-rule="nonzero" stroke="none" d="M 0,0 -0.246,0.143 -0.254,2.236 -0.01,2.1 Z"/></g></g></g><g id="g788"><g id="g790" clip-path="url(#clipPath794)"><g id="g796" transform="translate(147.4199,69.2881)"><path id="path798" fill="#fff" fill-opacity="1" fill-rule="nonzero" stroke="none" d="m 0,0 -0.244,0.137 c 0,0.164 -0.057,0.279 -0.151,0.334 L -0.152,0.328 C -0.057,0.273 0,0.16 0,0"/></g></g></g><g id="g800"><g id="g802" clip-path="url(#clipPath806)"><g id="g808" transform="translate(146.9004,70.5225)"><path id="path810" fill="#fff" fill-opacity="1" fill-rule="nonzero" stroke="none" d="M 0,0 -0.244,0.143 C 0.129,0.357 0.463,0.379 0.709,0.236 L 0.949,0.098 C 0.709,0.236 0.369,0.219 0,0"/></g></g></g><g id="g812"><g id="g814" clip-path="url(#clipPath818)"><g id="g820" transform="translate(142.7109,63.8701)"><path id="path822" fill="#d8d8d7" fill-opacity="1" fill-rule="nonzero" stroke="none" d="M 0,0 -0.246,0.143 3.955,2.57 4.199,2.426 Z"/></g></g></g><g id="g824"><g id="g826" clip-path="url(#clipPath830)"><g id="g832" transform="translate(142.3477,63.833)"><path id="path834" fill="#fff" fill-opacity="1" fill-rule="nonzero" stroke="none" d="M 0,0 -0.244,0.146 C -0.15,0.088 -0.025,0.1 0.117,0.18 L 0.361,0.037 C 0.221,-0.043 0.094,-0.053 0,0"/></g></g></g><g id="g836"><g id="g838" clip-path="url(#clipPath842)"><g id="g844" transform="translate(141.7598,62.835)"><path id="path846" fill="#fff" fill-opacity="1" fill-rule="nonzero" stroke="none" d="m 0,0 -0.244,0.143 c -0.24,0.138 -0.389,0.435 -0.389,0.855 L -0.389,0.857 C -0.389,0.436 -0.236,0.139 0,0"/></g></g></g><g id="g848"><g id="g850" clip-path="url(#clipPath854)"><g id="g856" transform="translate(141.3711,63.6943)"><path id="path858" fill="#848484" fill-opacity="1" fill-rule="nonzero" stroke="none" d="M 0,0 -0.244,0.139 -0.25,2.236 -0.008,2.094 Z"/></g><g id="g860" transform="translate(142.6953,68.0986)"><path id="path862" fill="#d8d8d7" fill-opacity="1" fill-rule="nonzero" stroke="none" d="M 0,0 -0.244,0.141 3.961,2.564 4.203,2.424 Z"/></g><g id="g864" transform="translate(147.4297,67.1885)"><path id="path866" fill="#c2c2c2" fill-opacity="1" fill-rule="nonzero" stroke="none" d="m 0,0 -0.01,2.1 c 0,0.318 -0.23,0.457 -0.517,0.293 L -4.73,-0.033 C -5.01,-0.193 -5.24,-0.6 -5.236,-0.924 l 0.004,-2.094 c 0.002,-0.332 0.228,-0.464 0.513,-0.302 l 4.199,2.427 C -0.23,-0.725 0,-0.33 0,0 M -0.531,3.334 C 0.207,3.762 0.807,3.42 0.811,2.572 L 0.816,0.475 C 0.818,-0.375 0.223,-1.406 -0.516,-1.834 L -4.719,-4.26 c -0.738,-0.426 -1.338,-0.082 -1.34,0.764 L -6.066,-1.4 c -0.004,0.849 0.593,1.882 1.332,2.308 z"/></g></g></g><g id="g868"><g id="g870" clip-path="url(#clipPath874)"><g id="g876" transform="translate(141.3652,65.7881)"><path id="path878" fill="#fff" fill-opacity="1" fill-rule="nonzero" stroke="none" d="M 0,0 -0.244,0.143 C -0.248,0.99 0.348,2.025 1.086,2.451 L 1.33,2.311 C 0.596,1.883 -0.004,0.85 0,0"/></g></g></g><g id="g880"><g id="g882" clip-path="url(#clipPath886)"><g id="g888" transform="translate(134.4102,107.5186)"><path id="path890" fill="#34334a" fill-opacity="1" fill-rule="nonzero" stroke="none" d="m 0,0 -5.078,-2.969 12.807,-9.043 5.087,2.938 z"/></g><g id="g892" transform="translate(117.043,107.0635)"><path id="path894" fill="#f9c231" fill-opacity="1" fill-rule="nonzero" stroke="none" d="m 0,0 42.938,25.74 c 0.892,0.52 2.126,0.444 3.492,-0.345 L 3.496,-0.344 C 2.127,0.445 0.893,0.521 0,0"/></g><g id="g896" transform="translate(117.043,107.0635)"><path id="path898" fill="none" stroke="#f8c130" stroke-dasharray="none" stroke-linecap="butt" stroke-linejoin="miter" stroke-miterlimit="10" stroke-opacity="1" stroke-width="1" d="m 0,0 42.938,25.74 c 0.892,0.52 2.126,0.444 3.492,-0.345 L 3.496,-0.344 C 2.127,0.445 0.893,0.521 0,0 Z"/></g><g id="g900" transform="translate(120.5391,106.7197)"><path id="path902" fill="#f9c231" fill-opacity="1" fill-rule="nonzero" stroke="none" d="m 0,0 42.934,25.742 c 0.773,-0.445 1.504,-1.074 2.154,-1.814 L 2.148,-1.811 C 1.5,-1.072 0.771,-0.443 0,0"/></g><g id="g904" transform="translate(120.5391,106.7197)"><path id="path906" fill="none" stroke="#f8c130" stroke-dasharray="none" stroke-linecap="butt" stroke-linejoin="miter" stroke-miterlimit="10" stroke-opacity="1" stroke-width="1" d="m 0,0 42.934,25.742 c 0.773,-0.445 1.504,-1.074 2.154,-1.814 L 2.148,-1.811 C 1.5,-1.072 0.771,-0.443 0,0 Z"/></g><g id="g908" transform="translate(165.627,130.6494)"><path id="path910" fill="#f9c231" fill-opacity="1" fill-rule="nonzero" stroke="none" d="m 0,0 -42.939,-25.74 c 0.769,-0.875 1.427,-1.914 1.906,-2.996 L 1.906,-2.998 C 1.426,-1.916 0.77,-0.875 0,0"/></g><g id="g912" transform="translate(165.627,130.6494)"><path id="path914" fill="none" stroke="#f8c130" stroke-dasharray="none" stroke-linecap="butt" stroke-linejoin="miter" stroke-miterlimit="10" stroke-opacity="1" stroke-width="1" d="m 0,0 -42.939,-25.74 c 0.769,-0.875 1.427,-1.914 1.906,-2.996 L 1.906,-2.998 C 1.426,-1.916 0.77,-0.875 0,0 Z"/></g><g id="g916" transform="translate(167.5332,127.6533)"><path id="path918" fill="#f9c231" fill-opacity="1" fill-rule="nonzero" stroke="none" d="m 0,0 -42.939,-25.74 c 0.543,-1.223 0.857,-2.508 0.851,-3.697 -0.002,-1.553 -0.553,-2.645 -1.435,-3.159 L -0.586,-6.855 C 0.299,-6.342 0.848,-5.25 0.852,-3.697 0.855,-2.51 0.537,-1.225 0,0"/></g><g id="g920" transform="translate(167.5332,127.6533)"><path id="path922" fill="#f9c231" fill-opacity="1" fill-rule="nonzero" stroke="none" d="m 0,0 -42.939,-25.74 c 0.543,-1.223 0.857,-2.508 0.851,-3.697 -0.002,-1.553 -0.553,-2.645 -1.435,-3.159 L -0.586,-6.855 C 0.299,-6.342 0.848,-5.25 0.852,-3.697 0.855,-2.51 0.537,-1.225 0,0"/></g><g id="g924" transform="translate(167.5332,127.6533)"><path id="path926" fill="none" stroke="#f8c130" stroke-dasharray="none" stroke-linecap="butt" stroke-linejoin="miter" stroke-miterlimit="10" stroke-opacity="1" stroke-width="1" d="m 0,0 -42.939,-25.74 c 0.543,-1.223 0.857,-2.508 0.851,-3.697 -0.002,-1.553 -0.553,-2.645 -1.435,-3.159 L -0.586,-6.855 C 0.299,-6.342 0.848,-5.25 0.852,-3.697 0.855,-2.51 0.537,-1.225 0,0 Z"/></g><g id="g928" transform="translate(125.4453,98.2158)"><path id="path930" fill="#f9c231" fill-opacity="1" fill-rule="nonzero" stroke="none" d="m 0,0 c -0.002,-1.553 -0.551,-2.645 -1.436,-3.158 l 42.94,25.74 c 0.885,0.514 1.432,1.607 1.437,3.158 0,0.162 -0.021,0.326 -0.031,0.489 L -0.029,0.492 C -0.018,0.328 0,0.162 0,0"/></g><g id="g932" transform="translate(120.5391,106.7197)"><path id="path934" fill="#f8d194" fill-opacity="1" fill-rule="nonzero" stroke="none" d="m 0,0 c -2.725,1.572 -4.924,0.305 -4.934,-2.822 -0.007,-3.125 2.18,-6.926 4.901,-8.498 2.717,-1.569 4.929,-0.307 4.939,2.816 C 4.916,-5.379 2.719,-1.568 0,0"/></g><g id="g936" transform="translate(120.7793,105.4619)"><path id="path938" fill="#f6b44e" fill-opacity="1" fill-rule="nonzero" stroke="none" d="m 0,0 c -2.332,1.346 -4.217,0.262 -4.225,-2.418 -0.007,-2.676 1.864,-5.936 4.194,-7.279 2.332,-1.344 4.23,-0.266 4.236,2.414 C 4.213,-4.607 2.328,-1.342 0,0"/></g><g id="g940" transform="translate(119.6992,103.2139)"><path id="path942" fill="#f1a31e" fill-opacity="1" fill-rule="nonzero" stroke="none" d="m 0,0 c -0.496,0 -0.791,-0.404 -0.793,-1.086 -0.004,-1.102 0.773,-2.445 1.727,-3 0.255,-0.146 0.502,-0.223 0.718,-0.223 0.496,0 0.793,0.405 0.793,1.084 0.006,1.104 -0.771,2.448 -1.73,3.002 C 0.465,-0.078 0.217,0 0,0 m 1.652,-4.771 v 0 c -0.298,0 -0.623,0.097 -0.947,0.285 -1.105,0.636 -1.965,2.131 -1.963,3.4 0,0.943 0.494,1.555 1.258,1.555 0.301,0 0.619,-0.1 0.947,-0.287 C 2.053,-0.457 2.918,-1.957 2.912,-3.225 2.91,-4.166 2.416,-4.771 1.652,-4.771 M -0.65,1.844 c -0.961,0 -1.567,-0.799 -1.567,-2.084 -0.008,-2.016 1.41,-4.481 3.164,-5.492 0.473,-0.274 0.942,-0.418 1.354,-0.418 0.963,0 1.57,0.798 1.572,2.084 C 3.877,-2.053 2.455,0.41 0.701,1.426 0.225,1.697 -0.242,1.844 -0.65,1.844 m 2.951,-8.531 v 0 c -0.512,0 -1.059,0.167 -1.623,0.49 -1.901,1.097 -3.44,3.769 -3.432,5.957 0.004,1.592 0.83,2.619 2.104,2.619 0.511,0 1.058,-0.162 1.621,-0.49 1.9,-1.098 3.445,-3.77 3.441,-5.955 C 4.406,-5.662 3.576,-6.687 2.301,-6.687"/></g><g id="g944"><g id="g978"><g id="g976" clip-path="url(#clipPath950)" opacity=".1"><g id="g974"><g id="g972" clip-path="url(#clipPath954)"><g id="g958" transform="translate(165.627,130.6494)"><path id="path956" fill="#f9c231" fill-opacity="1" fill-rule="nonzero" stroke="none" d="m 0,0 -42.939,-25.74 c 0.769,-0.875 1.427,-1.914 1.906,-2.996 L 1.906,-2.998 C 1.426,-1.916 0.77,-0.875 0,0"/></g><g id="g962" transform="translate(165.627,130.6494)"><path id="path960" fill="none" stroke="#f8c130" stroke-dasharray="none" stroke-linecap="butt" stroke-linejoin="miter" stroke-miterlimit="10" stroke-opacity="1" stroke-width="1" d="m 0,0 -42.939,-25.74 c 0.769,-0.875 1.427,-1.914 1.906,-2.996 L 1.906,-2.998 C 1.426,-1.916 0.77,-0.875 0,0 Z"/></g><g id="g966" transform="translate(167.5332,127.6533)"><path id="path964" fill="#fbe6ab" fill-opacity="1" fill-rule="nonzero" stroke="none" d="m 0,0 -42.939,-25.74 c 0.543,-1.223 0.857,-2.508 0.851,-3.697 -0.002,-1.553 -0.553,-2.645 -1.435,-3.159 L -0.586,-6.855 C 0.299,-6.342 0.848,-5.25 0.852,-3.697 0.855,-2.51 0.537,-1.225 0,0"/></g><g id="g970" transform="translate(125.4453,98.2158)"><path id="path968" fill="#fbe6ab" fill-opacity="1" fill-rule="nonzero" stroke="none" d="m 0,0 c -0.002,-1.553 -0.551,-2.645 -1.436,-3.158 l 42.94,25.74 c 0.885,0.514 1.432,1.607 1.437,3.158 0,0.162 -0.021,0.326 -0.031,0.489 L -0.029,0.492 C -0.018,0.328 0,0.162 0,0"/></g></g></g></g></g></g><g id="g980"><g id="g1002"><g id="g1000" clip-path="url(#clipPath986)" opacity=".5"><g id="g998"><g id="g996" clip-path="url(#clipPath990)"><g id="g994" transform="translate(117.043,107.0635)"><path id="path992" fill="#faaf3f" fill-opacity="1" fill-rule="nonzero" stroke="none" d="m 0,0 42.938,25.74 c 0.892,0.52 2.126,0.444 3.492,-0.345 L 3.496,-0.344 C 2.127,0.445 0.893,0.521 0,0"/></g></g></g></g></g></g><g id="g1004"><g id="g1026"><g id="g1024" clip-path="url(#clipPath1010)" opacity=".4"><g id="g1022"><g id="g1020" clip-path="url(#clipPath1014)"><g id="g1018" transform="translate(120.5391,106.7197)"><path id="path1016" fill="#faaf3f" fill-opacity="1" fill-rule="nonzero" stroke="none" d="m 0,0 42.934,25.742 c 0.773,-0.445 1.504,-1.074 2.154,-1.814 L 2.148,-1.811 C 1.5,-1.072 0.771,-0.443 0,0"/></g></g></g></g></g></g><g id="g1028" transform="translate(160.1875,112.6514)"><path id="path1030" fill="#e4e4e4" fill-opacity="1" fill-rule="nonzero" stroke="none" d="m 0,0 2.455,-1.68 -18.293,-10.619 -2.533,1.793 z"/></g><g id="g1032" transform="translate(160.1875,112.6514)"><path id="path1034" fill="#c3c4ca" fill-opacity="1" fill-rule="nonzero" stroke="none" d="M 0,0 V -3.102 L 2.455,-1.68 Z"/></g><g id="g1036" transform="translate(160.0566,128.1533)"><path id="path1038" fill="#c3c4ca" fill-opacity="1" fill-rule="nonzero" stroke="none" d="m 0,0 v -17.141 l -13.955,-9.761 -0.709,-0.412 -1.063,-0.653 v 19.543"/></g><g id="g1040" transform="translate(146.1016,118.499)"><path id="path1042" fill="#fdfdfe" fill-opacity="1" fill-rule="nonzero" stroke="none" d="m 0,0 v -17.252 l 15.188,8.875 V 8.768 Z"/></g><g id="g1044" transform="translate(150.8301,106.54)"><path id="path1046" fill="#ef4a51" fill-opacity="1" fill-rule="nonzero" stroke="none" d="m 0,0 c -0.141,0 -0.293,0.041 -0.43,0.113 -0.42,0.244 -0.562,0.774 -0.32,1.194 l 6.881,11.92 c 0.242,0.412 0.777,0.554 1.189,0.316 0.414,-0.242 0.557,-0.775 0.319,-1.193 L 0.762,0.437 C 0.598,0.16 0.307,0 0,0"/></g><g id="g1048" transform="translate(150.8301,106.54)"><path id="path1050" fill="none" stroke="#ef4a51" stroke-dasharray="none" stroke-linecap="butt" stroke-linejoin="miter" stroke-miterlimit="10" stroke-opacity="1" stroke-width="1" d="m 0,0 c -0.141,0 -0.293,0.041 -0.43,0.113 -0.42,0.244 -0.562,0.774 -0.32,1.194 l 6.881,11.92 c 0.242,0.412 0.777,0.554 1.189,0.316 0.414,-0.242 0.557,-0.775 0.319,-1.193 L 0.762,0.437 C 0.598,0.16 0.307,0 0,0 Z"/></g><g id="g1052" transform="translate(157.7109,110.5107)"><path id="path1054" fill="#ef4a51" fill-opacity="1" fill-rule="nonzero" stroke="none" d="m 0,0 c -0.141,0 -0.289,0.043 -0.43,0.115 l -6.881,3.973 c -0.419,0.242 -0.562,0.775 -0.32,1.189 0.24,0.42 0.772,0.561 1.188,0.325 L 0.439,1.627 C 0.854,1.385 0.996,0.855 0.758,0.441 0.598,0.16 0.305,0 0,0"/></g><g id="g1056" transform="translate(157.7109,110.5107)"><path id="path1058" fill="none" stroke="#ef4a51" stroke-dasharray="none" stroke-linecap="butt" stroke-linejoin="miter" stroke-miterlimit="10" stroke-opacity="1" stroke-width="1" d="m 0,0 c -0.141,0 -0.289,0.043 -0.43,0.115 l -6.881,3.973 c -0.419,0.242 -0.562,0.775 -0.32,1.189 0.24,0.42 0.772,0.561 1.188,0.325 L 0.439,1.627 C 0.854,1.385 0.996,0.855 0.758,0.441 0.598,0.16 0.305,0 0,0 Z"/></g><g id="g1060" transform="translate(161.2891,127.2666)"><path id="path1062" fill="#ececee" fill-opacity="1" fill-rule="nonzero" stroke="none" d="m 0,0 -1.771,1.164 -15.188,-8.764 1.77,-1.168"/></g></g></g></g></svg>